<?xml version="1.0" encoding="utf-8" ?><svg xmlns="http://www.w3.org/2000/svg" xmlns:xlink="http://www.w3.org/1999/xlink" width="539" height="539" viewBox="0 0 539 539"><path fill="white" transform="scale(0.525919 0.525919)" d="M0 0L1024 0L1024 1024L0 1024L0 0Z"/><path fill="#FFD800" transform="scale(0.525919 0.525919)" d="M201.399 174.026L824.074 173.995L824.067 703.707L824.454 811.392C824.462 816.915 825.009 845.746 823.891 849.101L201.508 849.512L201.399 174.026Z"/><defs><linearGradient id="gradient_0" gradientUnits="userSpaceOnUse" x1="336.00797" y1="530.28052" x2="793.02911" y2="493.1759"><stop offset="0" stop-color="#21B0FE"/><stop offset="1" stop-color="#19FFE3"/></linearGradient></defs><path fill="url(#gradient_0)" transform="scale(0.525919 0.525919)" d="M356.68 226.536C411.439 227.549 468.08 226.606 522.965 226.503L569.025 226.444C577.786 226.443 589.912 226.258 598.527 226.934C607.601 226.828 616.676 226.796 625.75 226.838C629.696 226.841 636.04 226.635 639.78 226.932C654.086 225.948 675.548 226.575 690.279 226.581L772.5 226.581L772.49 565.301L772.549 713.396C772.547 740.529 771.931 770.073 772.644 796.995L672.629 797.014L641.112 796.961C636.147 796.94 628.465 797.107 623.755 796.577C621.491 796.726 618.448 796.605 616.137 796.581C594.349 796.355 572.432 796.95 550.659 796.495C544.387 796.938 535.198 796.736 528.787 796.767L489.771 796.851C445.608 796.819 400.936 796.204 356.839 796.598C357.24 758.835 357.298 721.069 357.013 683.306L357.153 464.278L357.225 311.534L357.155 261.22C357.128 249.975 357.278 237.711 356.68 226.536Z"/><path fill="#35E9FF" transform="scale(0.525919 0.525919)" d="M550.659 796.495C553.754 794.678 595.073 796.306 602.703 795.667C608.505 795.181 614.177 789.18 620.324 791.041C623.171 791.902 625.294 794.579 627.889 795.521C630.97 796.639 661.165 796.003 667.018 796.08C663.947 796.609 660.018 796.169 656.917 796.34C647.517 796.86 632.626 795.553 623.755 796.577C621.491 796.726 618.448 796.605 616.137 796.581C594.349 796.355 572.432 796.95 550.659 796.495Z"/><path fill="#35E9FF" transform="scale(0.525919 0.525919)" d="M639.78 226.932C644.727 227.59 659.132 227.287 664.389 227.291C651.248 228.19 637.186 227.044 623.947 227.468C619.978 227.595 616.798 227.018 612.955 228.88C612.815 228.947 605.809 226.747 604.531 227.52C588.451 227.301 572.313 227.768 556.246 227.488C559.48 225.944 591.045 227.586 597.93 226.991L598.527 226.934C607.601 226.828 616.676 226.796 625.75 226.838C629.696 226.841 636.04 226.635 639.78 226.932Z"/><path fill="#FFD800" transform="scale(0.525919 0.525919)" d="M553.656 269.985C563.1 270.144 579.391 270.599 588.416 270.055C592.576 270.408 596.76 270.366 600.933 270.396C640.913 270.688 680.965 270.038 720.94 270.511C720.87 285.191 720.907 299.871 721.052 314.551C711.002 314.452 700.951 314.435 690.901 314.5C687.507 314.521 678.908 314.445 675.931 314.958C678.255 315.114 680.579 315.289 682.901 315.484C681.043 315.207 682.335 315.63 680.912 315.639C667.206 315.728 653.516 316.066 639.808 316C633.698 320.198 630.924 323.045 628.565 330.534C631.545 341.266 634.27 350.684 634.327 361.977C634.361 368.691 633.713 375.468 633.851 382.135C633.927 385.805 635.033 390.782 635.242 394.48C635.812 404.556 636.524 416.618 634.103 426.425C633.689 428.099 634.991 433.598 634.784 435.862C633.992 444.512 627.271 457.679 633.754 464.911C637.641 469.248 639.408 469.448 644.69 470.32C649.076 471.044 673.529 469.72 675.572 470.758C671.74 471.138 666.28 470.949 662.247 470.942L634.282 470.885C629.803 470.883 623.073 470.696 618.862 471.084C625.834 471.733 636.676 471.458 644.022 471.478L694.051 471.604C702.002 471.625 713.758 471.33 721.48 471.887C721.107 485.926 720.975 499.97 721.082 514.014L659.534 514.087C650.665 514.103 635.473 513.669 627.322 514.413C616.354 514.04 603.428 514.382 592.323 514.411L533.92 514.562C530.572 514.206 522.821 514.413 519.23 514.426L491.333 514.521L402.249 514.524C401.924 500.353 402.111 485.266 402.048 471.007L513.372 470.934C512.852 454.681 513.24 436.869 513.227 420.551C513.165 385.314 513.373 350.077 513.85 314.843C476.811 315.109 439.044 314.432 402.111 315.238C402.262 300.308 402.24 285.378 402.045 270.449C451.806 269.387 504.039 271.84 553.656 269.985Z"/><path fill="#35E9FF" transform="scale(0.525919 0.525919)" d="M557.316 314.966L675.931 314.958C678.255 315.114 680.579 315.289 682.901 315.484C681.043 315.207 682.335 315.63 680.912 315.639C667.206 315.728 653.516 316.066 639.808 316C633.698 320.198 630.924 323.045 628.565 330.534C631.545 341.266 634.27 350.684 634.327 361.977C634.361 368.691 633.713 375.468 633.851 382.135C633.927 385.805 635.033 390.782 635.242 394.48C635.812 404.556 636.524 416.618 634.103 426.425C633.689 428.099 634.991 433.598 634.784 435.862C633.992 444.512 627.271 457.679 633.754 464.911C637.641 469.248 639.408 469.448 644.69 470.32C649.076 471.044 673.529 469.72 675.572 470.758C671.74 471.138 666.28 470.949 662.247 470.942L634.282 470.885C629.803 470.883 623.073 470.696 618.862 471.084C613.504 471.334 605.013 471.017 599.445 470.993C585.462 470.878 571.478 470.898 557.496 471.055C557.61 419.437 558.055 366.526 557.316 314.966Z"/><path fill="#FFD800" transform="scale(0.525919 0.525919)" d="M402.331 554.102L610.761 553.992L683.895 553.977C695.609 553.955 709.3 553.495 720.761 553.867C720.442 566.87 720.471 579.879 720.847 592.881C709.591 592.574 698.329 592.483 687.07 592.606C684.671 592.611 674.141 592.511 672.229 592.956C668.786 594.216 647.371 593.215 642.289 593.635C638.921 593.451 634.347 594.761 631.216 594.807C622.372 594.936 623.982 598.15 618.832 602.034C613.253 601.008 616.057 602.769 613.885 604.049C613.424 602.271 604.911 593.731 603.611 593.696C581.465 593.091 555.713 595.537 533.846 593.826C538.969 593.243 546.17 593.707 552.001 593.135L552.61 593.071C541.847 592.856 530.891 592.88 520.116 592.956C480.917 593.23 441.603 592.561 402.416 593.008L402.331 554.102Z"/><path fill="#35E9FF" transform="scale(0.525919 0.525919)" d="M552.61 593.071L628.252 592.915C641.74 592.885 659.033 592.417 672.229 592.956C668.786 594.216 647.371 593.215 642.289 593.635C638.921 593.451 634.347 594.761 631.216 594.807C622.372 594.936 623.982 598.15 618.832 602.034C613.253 601.008 616.057 602.769 613.885 604.049C613.424 602.271 604.911 593.731 603.611 593.696C581.465 593.091 555.713 595.537 533.846 593.826C538.969 593.243 546.17 593.707 552.001 593.135L552.61 593.071Z"/><path fill="#FFD800" transform="scale(0.525919 0.525919)" d="M673.331 635.488C678.249 635.891 684.549 635.607 689.584 635.609C699.83 635.614 710.102 635.405 720.356 635.467L720.326 673.33C705.695 672.734 690.799 673.449 676.146 673.331C673.068 673.306 669.868 673.348 666.801 673.529C663.781 675.237 637.884 672.939 633.638 674.198C630.487 675.133 633.729 677.274 626.535 676.746C621.931 679.489 618.813 680.325 613.382 680.43C611.668 680.464 608.596 675.815 607.516 674.359C590.382 673.072 567.329 674.28 549.446 673.904L553.532 673.446C549.289 672.995 540.938 673.194 536.455 673.176L504.476 673.075L402.294 672.997L402.27 635.999L569.88 635.905L618.533 635.855C627.129 635.84 637.807 636.119 646.158 635.577C654.647 635.759 664.81 635.747 673.331 635.488Z"/><path fill="#35E9FF" transform="scale(0.525919 0.525919)" d="M553.532 673.446C585.137 672.628 617.107 673.844 648.746 673.446C654.66 673.372 660.908 673.295 666.801 673.529C663.781 675.237 637.884 672.939 633.638 674.198C630.487 675.133 633.729 677.274 626.535 676.746C621.931 679.489 618.813 680.325 613.382 680.43C611.668 680.464 608.596 675.815 607.516 674.359C590.382 673.072 567.329 674.28 549.446 673.904L553.532 673.446Z"/><path fill="#FFD800" transform="scale(0.525919 0.525919)" d="M402.099 716.019L496.632 716.028L524.257 716.166C528.765 716.196 535.998 716.443 540.238 716.029C548.278 716.271 568.921 716.723 576.751 716.075C581.701 716.571 588.916 716.374 594.053 716.376L623.097 716.37C655.431 716.328 688.079 716.054 720.389 716.403L720.493 754.046L402.074 754.042C402.237 741.369 402.245 728.693 402.099 716.019Z"/><path fill="#35E9FF" transform="scale(0.525919 0.525919)" d="M533.92 514.562L592.323 514.411C603.428 514.382 616.354 514.04 627.322 514.413L627.941 514.463C631.847 514.747 635.677 514.626 639.586 514.667C655.173 514.83 670.853 514.467 686.432 514.817C679.226 515.629 638.237 514.465 636.425 515.741L636.099 516.783C634.596 517.017 635.152 517.081 633.732 516.705L633.272 519.057C632.893 518.455 632.764 518.221 632.214 517.754C629.909 520.928 630.572 520.658 626.425 520.379C622.231 522.502 620.176 525.046 617.318 528.688C616.49 528.849 615.23 528.887 614.943 529.481C613.844 531.757 614.059 539.413 614.619 541.722C616.632 542.782 618.201 542.467 619.198 543.047C621.117 544.163 623.345 546.016 625.67 546.766C629.325 547.945 638.716 551.944 642.129 552.373C654.394 553.914 668.279 552.174 680.74 552.852C685.264 553.098 690.731 552.364 694.685 552.891L694.69 553.31C665.572 553.232 634.154 554.39 605.325 553.436C603.956 552.416 603.515 552.826 601.331 552.843C601.273 553.049 612.231 546.575 611.85 543.257C611.61 541.169 614.207 532.736 613.217 530.481C611.137 525.742 608.416 517.684 602.663 516.199C596.73 515.54 587.572 517.958 581.35 517.877C576.072 516.953 579.724 515.479 573.395 514.949C562.419 514.029 544.174 516.695 533.92 514.562Z"/><path fill="#35E9FF" transform="scale(0.525919 0.525919)" d="M646.158 635.577L645.542 635.526C638.677 635.01 631.368 635.428 624.439 635.351C589.886 634.967 555.063 635.91 520.537 635.272C523.137 634.139 561.177 635.221 567.705 634.7C572.412 634.324 577.336 633.411 582.3 632.677C586.373 632.075 593.687 632.578 598.08 632.547C604.654 632.501 610.519 624.948 617.571 624.597C618.28 624.562 618.956 624.588 619.648 624.652C627.567 625.391 633.325 632.049 641.046 634.074C647.461 635.757 668.685 633.545 673.331 635.488C664.81 635.747 654.647 635.759 646.158 635.577Z"/><path fill="#35E9FF" transform="scale(0.525919 0.525919)" d="M602.286 715.577C617.251 702.5 622.509 707.189 637.562 715.293C637.928 715.49 673.182 715.548 675.221 715.261L675.4 715.723C652.717 715.847 629.509 716.078 606.84 715.828C605.515 715.146 603.86 715.477 602.286 715.577Z"/><path fill="#35E9FF" transform="scale(0.525919 0.525919)" d="M553.363 754.75C591.701 754.559 630.039 754.574 668.377 754.795C667.015 755.433 658.213 755.111 656.118 755.119C648.08 755.294 639.027 754.725 631.211 755.295C627.575 755.559 617.879 762.587 612.637 761.514C611.01 761.182 607.833 755.351 607.16 755.335C593.433 755.027 579.659 755.25 565.923 755.129C562.041 755.091 554.929 755.305 553.363 754.75Z"/><path fill="#35E9FF" transform="scale(0.525919 0.525919)" d="M553.656 269.985C556.634 268.216 598.051 270.26 604.303 269.6C610.109 268.987 611.131 260.814 617.477 264.198C627.723 269.663 628.654 269.663 640.247 269.515C649.393 269.398 661.272 268.931 670.403 269.629C667.338 270.023 656.471 269.823 652.936 269.836L612.609 269.875C606.417 269.841 593.961 269.418 588.416 270.055C579.391 270.599 563.1 270.144 553.656 269.985Z"/><path fill="#26E4FA" transform="scale(0.525919 0.525919)" d="M540.238 716.029C544.652 714.656 565.526 715.843 571.243 715.555C572.922 715.471 576.379 715.6 578.238 715.479C578.335 715.473 581.004 713.645 580.943 713.65C587.204 713.157 596.58 715.288 602.286 715.577C603.86 715.477 605.515 715.146 606.84 715.828C598.12 715.848 585.054 715.419 576.751 716.075C568.921 716.723 548.278 716.271 540.238 716.029Z"/><path fill="#26E4FA" transform="scale(0.525919 0.525919)" d="M605.325 553.436C597.381 553.997 582.102 553.497 573.548 553.447C559.194 553.362 542.531 553.811 528.366 553.151C531.491 552.857 537.045 553.012 540.327 553.006C548.468 553.013 556.61 552.956 564.75 552.837C571.108 552.805 576.273 553.28 582.548 551.642C583.527 551.387 590.865 552.799 592.637 552.909C595.603 553.094 598.304 552.991 601.331 552.843C603.515 552.826 603.956 552.416 605.325 553.436Z"/><path fill="#FE218B" transform="scale(0.525919 0.525919)" d="M251.952 226.467C270.079 226.783 289.11 226.614 307.261 226.553C308.169 258.771 307.401 294.725 307.212 327.126L307.025 448.677L307.524 777.451L306.965 777.912C305.38 777.064 295.58 765.95 293.655 763.867C279.732 748.796 266.099 733.317 251.613 718.783C252.032 694.67 252.174 670.552 252.038 646.436L252.035 530.632L251.952 226.467Z"/></svg>